<?xml version="1.0" encoding="UTF-8" standalone="no"?>
<svg
   width="116"
   height="85.587067"
   viewBox="0 0 116 85.587067"
   fill="none"
   version="1.1"
   id="svg155"
   sodipodi:docname="logo.svg"
   inkscape:version="1.2.2 (b0a8486, 2022-12-01)"
   xmlns:inkscape="http://www.inkscape.org/namespaces/inkscape"
   xmlns:sodipodi="http://sodipodi.sourceforge.net/DTD/sodipodi-0.dtd"
   xmlns="http://www.w3.org/2000/svg"
   xmlns:svg="http://www.w3.org/2000/svg">
  <sodipodi:namedview
     id="namedview157"
     pagecolor="#505050"
     bordercolor="#ffffff"
     borderopacity="1"
     inkscape:showpageshadow="0"
     inkscape:pageopacity="0"
     inkscape:pagecheckerboard="1"
     inkscape:deskcolor="#505050"
     showgrid="false"
     inkscape:zoom="1.888"
     inkscape:cx="57.997881"
     inkscape:cy="42.637712"
     inkscape:window-width="1792"
     inkscape:window-height="1003"
     inkscape:window-x="0"
     inkscape:window-y="25"
     inkscape:window-maximized="1"
     inkscape:current-layer="svg155" />
  <path
     d="m 98.833,70.576589 c 1.47,-4.5382 1.349,-9.2072 -0.04,-13.4133 -1.388,-4.2061 -4.065,-7.9493 -7.708,-10.6259 -0.02,-0.0101 -0.04,-0.0302 -0.07,-0.0403 -0.02,-0.0201 -0.04,-0.0302 -0.06,-0.0503 -2.2344,-1.6201 -3.6733,-3.9344 -4.2167,-6.44 -0.5232,-2.5055 -0.171,-5.2123 1.2176,-7.6072 0.01,-0.0201 0.0302,-0.0503 0.0402,-0.0704 0.0101,-0.0202 0.0302,-0.0503 0.0403,-0.0705 2.2236,-3.9344 3.1296,-8.4424 2.6866,-12.8497 -0.453,-4.4074 -2.2539,-8.7141 -5.4538,-12.2560997 -2.6464,-2.9282 -5.9066,-4.9608 -9.4084,-6.0878 C 72.3591,-0.08201069 68.5152,-0.34361069 64.6512,0.48148931 59.9923,1.4776893 55.9975,3.9127893 53.0593,7.2232893 50.111,10.533889 48.2092,14.709789 47.7061,19.207689 c 0,0.0302 0,0.0503 0,0.0805 0,0.0302 0,0.0503 0,0.0805 -0.2818,2.7471 -1.5798,5.152 -3.4716,6.8727 -1.9119,1.7106 -4.4275,2.747 -7.1946,2.7571 -0.0302,0 -0.0504,0 -0.0805,0 -0.0302,0 -0.0504,0 -0.0805,0 -4.5181,0.0402 -8.8751,1.5094 -12.4674,4.1055 -3.5923,2.5961 -6.4199,6.3091 -7.889,10.8473 -1.2176,3.7533 -1.3484,7.6072 -0.5635,11.1995 0.7648,3.6024 2.4552,7.0639 5.1017,9.992 3.1998,3.542 7.2953,5.7759 11.6422,6.6714 4.337,0.8956 8.9154,0.4529 13.051,-1.3584 0.0202,0 0.0504,-0.0201 0.0705,-0.0302 0.0201,-0.01 0.0503,-0.0201 0.0704,-0.0302 2.5257,-1.127 5.2426,-1.2075 7.6877,-0.4326 2.4351,0.7949 4.5986,2.4653 5.9771,4.8501 0.0101,0.0201 0.0302,0.0503 0.0403,0.0704 0.01,0.0201 0.0302,0.0503 0.0402,0.0704 2.2943,3.8942 5.7457,6.9333 9.7807,8.7443 4.0452,1.811 8.6739,2.405 13.3429,1.409 3.8539,-0.825 7.2553,-2.637 9.9823,-5.112 2.747,-2.4653 4.89,-5.6551 6.108,-9.4084 z"
     fill="url(#paint0_linear_409_2875)"
     id="path132"
     style="fill:url(#paint0_linear_409_2875)" />
  <path
     d="m 101.309,35.901389 c -5.514,0 -10.314,3.0389 -12.8298,7.5267 -0.0604,0.1007 -0.1107,0.2114 -0.1711,0.312 0,0 0,0 0,0.01 -1.8515,3.2301 -5.3431,5.4136 -9.3379,5.4136 -5.152,0 -9.4487,-3.6224 -10.5153,-8.4524 -4.2564,-14.4799 -17.6496,-25.0555 -33.5181,-25.0555 -19.2897,0 -34.9368,15.637 -34.9368,34.9368 0,19.2897 15.6371,34.9364 34.9368,34.9364 15.8585,0 29.2516,-10.5752 33.5181,-25.0551 1.0566,-4.8299 5.3633,-8.4424 10.5153,-8.4424 3.9948,0 7.4764,2.1735 9.3379,5.4136 0,0 0,0 0,0.0101 0.0604,0.1006 0.1208,0.2013 0.1711,0.3119 2.5158,4.4879 7.3158,7.5268 12.8298,7.5268 8.11,0 14.691,-6.5809 14.691,-14.6912 0,-8.1204 -6.581,-14.6912 -14.691,-14.6912 z"
     fill="url(#paint1_linear_409_2875)"
     id="path134"
     style="fill:url(#paint1_linear_409_2875)" />
  <path
     d="m 91.095,46.537389 c 0,0 -0.04,-0.0302 -0.07,-0.0402 -0.02,-0.0202 -0.04,-0.0302 -0.06,-0.0503 -1.0671,-0.7748 -1.9425,-1.7006 -2.6368,-2.737 0,0 -0.0101,0.0201 -0.0201,0.0302 0,0 0,0 0,0.01 -1.8515,3.2301 -5.3432,5.4136 -9.338,5.4136 -5.152,0 -9.4486,-3.6225 -10.5153,-8.4524 -3.0288,-10.3141 -10.6964,-18.6357 -20.5877,-22.5802 -0.0604,0.3623 -0.1208,0.7245 -0.161,1.0867 0,0.0302 0,0.0504 0,0.0805 0,0.0302 0,0.0504 0,0.0805 -0.2818,2.7471 -1.5798,5.152 -3.4716,6.8727 -1.9119,1.7106 -4.4275,2.7471 -7.1946,2.7571 -0.0302,0 -0.0504,0 -0.0805,0 -0.0302,0 -0.0504,0 -0.0805,0 -4.5181,0.0403 -8.8751,1.5094 -12.4674,4.1055 -3.5923,2.5961 -6.4199,6.3092 -7.889,10.8473 -1.2176,3.7533 -1.3484,7.6073 -0.5635,11.1995 0.7648,3.6024 2.4552,7.0639 5.1017,9.9921 3.1998,3.5419 7.2952,5.7758 11.6422,6.6714 4.3369,0.8955 8.9154,0.4528 13.051,-1.3585 0.0202,0 0.0503,-0.0201 0.0705,-0.0301 0.0201,-0.0101 0.0503,-0.0202 0.0704,-0.0302 2.5257,-1.127 5.2426,-1.2075 7.6877,-0.4327 2.4351,0.7949 4.5986,2.4653 5.9771,4.8501 0.0101,0.0201 0.0302,0.0503 0.0403,0.0704 0.01,0.0201 0.0302,0.0503 0.0402,0.0705 0.0403,0.0704 0.0906,0.1408 0.1409,0.2113 4.0149,-4.0552 7.0437,-9.0764 8.694,-14.6912 1.0565,-4.83 5.3633,-8.4424 10.5152,-8.4424 3.9948,0 7.4764,2.1735 9.338,5.4136 0,0 0,0 0,0.01 0.0604,0.1007 0.1207,0.2013 0.1711,0.312 2.2837,4.0853 6.4697,6.9632 11.3607,7.4462 0.161,-2.7672 -0.201,-5.484 -1.047,-8.0399 -1.388,-4.2061 -4.065,-7.9493 -7.708,-10.626 z"
     fill="url(#paint2_linear_409_2875)"
     id="path136"
     style="fill:url(#paint2_linear_409_2875)" />
  <defs
     id="defs153">
    <linearGradient
       id="paint0_linear_409_2875"
       x1="48.441002"
       y1="40.270401"
       x2="102.538"
       y2="100.182"
       gradientUnits="userSpaceOnUse"
       gradientTransform="translate(-10,-20.000011)">
      <stop
         offset="0.4"
         stop-color="#C18DBE"
         id="stop138" />
      <stop
         offset="1"
         stop-color="#9EB5DD"
         id="stop140" />
    </linearGradient>
    <linearGradient
       id="paint1_linear_409_2875"
       x1="10.0101"
       y1="70.592598"
       x2="126"
       y2="70.592598"
       gradientUnits="userSpaceOnUse"
       gradientTransform="translate(-10,-20.000011)">
      <stop
         offset="0.4"
         stop-color="#3E8DCB"
         id="stop143" />
      <stop
         offset="0.99"
         stop-color="#82CDF2"
         id="stop145" />
    </linearGradient>
    <linearGradient
       id="paint2_linear_409_2875"
       x1="25.4659"
       y1="66.648102"
       x2="109.88"
       y2="66.648102"
       gradientUnits="userSpaceOnUse"
       gradientTransform="translate(-10,-20.000011)">
      <stop
         offset="0.4"
         stop-color="#304F99"
         id="stop148" />
      <stop
         offset="0.99"
         stop-color="#4A82C3"
         id="stop150" />
    </linearGradient>
  </defs>
</svg>
